<?xml version="1.0" encoding="UTF-8"?>
<svg id="Layer_1" xmlns="http://www.w3.org/2000/svg" version="1.1" viewBox="0 0 83.5 104.9">
  <!-- Generator: Adobe Illustrator 29.5.0, SVG Export Plug-In . SVG Version: 2.1.0 Build 137)  -->
  <defs>
    <style>
      .st0 {
        fill: #ff9100;
      }

      .st1 {
        fill: #ffc400;
      }

      .st2 {
        fill: #dd2c00;
      }
    </style>
  </defs>
  <path class="st0" d="M26.2,101.9c4.4,1.8,9.1,2.8,14.1,3,6.8.2,13.2-1.2,19-3.8-6.9-2.7-13.2-6.7-18.5-11.6-3.5,5.5-8.6,9.9-14.6,12.4Z"/>
  <path class="st1" d="M40.8,89.5c-12.2-11.3-19.6-27.5-18.9-45.4,0-.6,0-1.2,0-1.7-2.2-.6-4.5-.9-6.8-1-3.3-.1-6.6.3-9.7,1.2C2.2,48.2.3,54.7,0,61.7c-.6,18.1,10.3,33.8,26.1,40.2,6.1-2.5,11.2-6.9,14.6-12.4h0Z"/>
  <path class="st0" d="M40.8,89.5c2.8-4.5,4.5-9.8,4.8-15.6.5-15-9.6-28-23.6-31.6,0,.6,0,1.2,0,1.7-.6,17.9,6.8,34.2,18.9,45.4Z"/>
  <path class="st2" d="M44,0c-8,6.4-14.3,14.8-18.1,24.5-2.2,5.6-3.5,11.5-4,17.8,14,3.6,24.1,16.6,23.6,31.6-.2,5.7-1.9,11-4.8,15.6,5.3,4.9,11.6,8.9,18.5,11.6,13.9-6.4,23.7-20.2,24.2-36.5.4-10.6-3.7-20-9.4-27.9C68,28.3,44,0,44,0Z"/>
</svg>